PathFileType	4	(X/Y/Z)	s02c0303.trc
DataRate	CameraRate	NumFrames	NumMarkers	Units	OrigDataRate	OrigDataStartFrame	OrigNumFrames
200	200	5	50	mm	200	1250	2000
Frame#	Time	racr			lacr			c7			jug			rlel			rdr			llel			ldr			s2			lic			ric			lasi			rasi			rpsi			lpsi			rgt			lgt			rth1			rth2			rth3			rth4			rlfc			rmfc			rsh1			rsh2			rsh3			rsh4			rlmal			rmmal			rtoe			rmt5			rmt1			lth1			lth2			lth4			lth3			llfc			lmfc			lsh1			lsh2			lsh3			lsh4			llmal			lmmal			lcal			ltoe			lmt5			SBIKE			LBIKE			RBIKE			
		X1	Y1	Z1	X2	Y2	Z2	X3	Y3	Z3	X4	Y4	Z4	X5	Y5	Z5	X6	Y6	Z6	X7	Y7	Z7	X8	Y8	Z8	X9	Y9	Z9	X10	Y10	Z10	X11	Y11	Z11	X12	Y12	Z12	X13	Y13	Z13	X14	Y14	Z14	X15	Y15	Z15	X16	Y16	Z16	X17	Y17	Z17	X18	Y18	Z18	X19	Y19	Z19	X20	Y20	Z20	X21	Y21	Z21	X22	Y22	Z22	X23	Y23	Z23	X24	Y24	Z24	X25	Y25	Z25	X26	Y26	Z26	X27	Y27	Z27	X28	Y28	Z28	X29	Y29	Z29	X30	Y30	Z30	X31	Y31	Z31	X32	Y32	Z32	X33	Y33	Z33	X34	Y34	Z34	X35	Y35	Z35	X36	Y36	Z36	X37	Y37	Z37	X38	Y38	Z38	X39	Y39	Z39	X40	Y40	Z40	X41	Y41	Z41	X42	Y42	Z42	X43	Y43	Z43	X44	Y44	Z44	X45	Y45	Z45	X46	Y46	Z46	X47	Y47	Z47	X48	Y48	Z48	X49	Y49	Z49	X50	Y50	Z50	
1250	6.2500	696.495533	1233.609510	-96.693769	772.095889	1217.953167	-435.041433	737.474640	1263.741016	-270.485902	655.256177	1144.361761	-276.304898	573.914437	990.183017	-59.040743	719.649751	854.585098	-127.697565	646.036855	1028.818562	-619.185389	720.561795	844.842097	-528.876941	198.584114	1208.656193	-367.734421	335.783147	1152.159173	-496.200257	303.432344	1186.155554	-206.243879	365.546577	1106.505833	-461.575394	347.451283	1154.100947	-238.970951	214.530921	1245.475930	-332.457733	239.462234	1239.016142	-414.908782	270.519517	1118.728077	-167.039005	264.595455	1069.647152	-521.652700	348.313656	1073.581681	-155.955819	427.560557	1034.769102	-153.580066	477.566994	972.601550	-122.659869	447.986755	1053.089620	-179.945391	565.267843	848.157639	-144.587263	562.464542	828.235967	-256.013266	529.123781	740.785162	-129.446548	500.204769	657.643670	-148.172008	438.996155	597.500102	-145.030480	511.968396	652.608413	-186.299912	366.100208	503.281341	-149.630330	378.200579	520.065721	-231.320388	560.515934	404.192117	-190.437736	450.945834	408.566896	-129.552044	480.131906	420.531096	-236.843799	340.165356	953.463669	-532.291318	390.064162	881.828450	-531.146851	421.409391	893.452013	-516.147711	395.754119	792.845720	-529.909461	420.308059	693.892354	-516.391150	422.804390	663.389421	-415.547944	360.045132	605.560309	-533.999079	323.288783	529.835698	-516.355575	248.696753	477.973478	-515.171217	340.754749	520.034275	-479.916767	167.464967	399.848393	-498.516811	186.445188	386.666234	-422.015753	96.166919	417.391954	-449.398734	242.199560	170.137838	-440.777058	163.080273	240.811027	-505.914949	-128.208751	870.088152	-311.950983	32.568133	83.578935	-514.948484	33.271220	82.990916	-114.814204	
1251	6.2550	697.179483	1232.274246	-96.535986	772.212450	1219.691196	-435.327401	737.993297	1263.946133	-270.166080	655.295024	1144.954344	-276.988436	573.669636	989.435514	-59.296539	719.682550	854.692118	-127.844396	646.713319	1029.293286	-618.601208	720.572757	844.684382	-528.756913	199.326469	1208.684234	-368.143735	336.331699	1153.444465	-496.258556	303.050379	1184.527609	-206.335768	366.073716	1107.434734	-462.092120	347.402111	1152.481589	-238.877643	215.036801	1245.830161	-332.399724	240.139744	1239.937199	-414.604172	268.718370	1116.036967	-167.872850	266.874184	1070.835360	-523.381127	346.725555	1069.049625	-155.994937	425.275755	1028.832781	-153.045036	473.760059	965.614331	-122.109193	446.366255	1047.355693	-178.765072	559.247351	839.822017	-144.863543	557.433072	819.500054	-255.624634	523.838816	731.068222	-129.389067	497.166640	647.382473	-148.880577	437.477025	585.593957	-146.487853	509.319902	642.939758	-186.954382	367.175244	491.365415	-152.421143	379.633886	508.225988	-233.508540	564.319776	395.789017	-190.256910	454.306879	398.704411	-130.241864	483.442347	410.622316	-237.537240	345.102636	955.862308	-531.846530	396.015274	885.069476	-530.681949	426.889674	897.053681	-515.324618	403.013203	796.235648	-529.995113	428.100580	697.232133	-516.916765	428.690976	667.180827	-414.967360	365.580590	609.619914	-534.384920	326.370701	535.154845	-516.731342	250.227622	485.614133	-515.602634	343.437975	524.712760	-480.139571	166.432289	409.642611	-498.873413	185.338684	396.132860	-422.366764	95.428271	428.231091	-449.466884	237.202446	178.588174	-440.797367	159.161983	250.582436	-505.986069	-128.154302	870.081699	-311.971444	32.583642	83.530599	-514.979911	33.142826	82.977193	-114.822324	
1252	6.2600	698.162044	1230.988340	-96.538054	772.249648	1221.489233	-435.784691	738.507385	1264.174002	-270.095414	655.688025	1145.316900	-277.707822	573.403667	988.851663	-59.167614	719.746275	854.855197	-127.912863	647.430666	1029.792925	-618.045434	721.463337	844.619912	-529.734239	200.043776	1208.317646	-368.505175	336.912804	1154.452109	-496.474356	302.763581	1182.612506	-206.268638	366.570264	1108.263625	-462.643158	347.382930	1150.495811	-238.870025	215.562755	1245.490429	-332.010970	241.006604	1239.913541	-414.406297	266.837747	1113.051510	-168.485868	269.137582	1071.733534	-525.003867	345.244789	1064.484213	-155.992759	423.053934	1022.852762	-152.584764	469.455878	958.603745	-121.114757	444.804227	1041.358427	-177.558876	552.738525	830.917400	-144.782836	552.435341	811.216503	-255.254775	518.422553	721.656515	-129.632259	493.345213	636.831744	-150.561958	436.217278	574.068541	-147.886317	507.766291	633.763422	-187.360074	368.257306	479.776177	-153.877055	380.865124	496.198611	-235.061624	567.682104	386.616557	-190.925178	457.466746	388.324668	-130.944876	486.443664	400.691756	-238.383422	349.850319	958.157834	-531.997316	401.780500	888.081267	-530.417984	432.254011	900.470652	-514.659630	410.101452	799.430665	-530.166446	435.560523	700.257844	-517.432515	434.476447	670.634979	-414.263479	370.756010	613.698321	-534.762897	329.570263	540.500395	-517.117726	251.959935	493.152360	-515.967803	346.312503	529.471073	-480.445661	166.081706	419.351265	-499.172860	184.925017	405.816153	-422.733859	95.372076	439.148785	-449.643109	232.618888	186.947679	-440.942573	155.955642	260.331277	-506.055446	-128.176079	870.060128	-312.087200	32.572726	83.490944	-514.986142	33.081027	83.000720	-114.767273	
1253	6.2650	699.294426	1229.548716	-96.649136	772.269216	1223.356502	-436.389888	739.001471	1264.441596	-270.198486	656.374896	1145.506026	-278.603180	573.137709	988.353577	-58.707253	719.795775	855.073597	-127.880852	647.990129	1030.239047	-617.615858	722.367237	844.568374	-530.757388	200.503863	1207.429108	-368.698775	337.406692	1155.215161	-496.235500	302.598741	1180.336964	-206.032170	366.965715	1108.840385	-463.035977	347.487108	1148.463640	-238.608106	216.051408	1244.581115	-331.382303	241.395498	1239.618736	-413.611763	265.543840	1109.610020	-169.576468	271.390396	1072.481238	-526.486240	343.808453	1059.778401	-155.962875	420.914576	1016.895928	-152.147889	466.004945	951.167663	-121.008016	443.272425	1035.224316	-176.593191	546.449008	822.547088	-145.346965	547.561272	803.144771	-255.466766	513.093210	712.863295	-129.738110	490.583430	627.491757	-150.737162	435.097255	563.058098	-148.794670	505.553360	624.837705	-187.404792	369.381836	468.020588	-155.100230	383.099616	484.518459	-236.120173	570.187300	376.471246	-190.330847	459.194115	377.677216	-131.168817	489.378636	390.417149	-238.635935	354.287742	960.204970	-532.272741	407.275304	890.797186	-530.398452	437.292651	903.619356	-514.101765	416.844131	802.377100	-530.351066	442.646335	703.192729	-517.948903	440.386592	673.615300	-414.304180	376.119260	617.742644	-535.219084	332.777149	545.307920	-517.121596	254.066681	500.523396	-516.256226	349.236957	534.380284	-480.786820	166.460832	428.975044	-499.446657	184.382967	415.551083	-422.849432	96.219316	450.078059	-449.723982	228.727170	195.353320	-441.148765	153.383380	270.144524	-506.068637	-128.259398	869.999355	-312.302490	32.577162	83.326285	-515.089526	32.532392	83.438542	-114.835536	
1254	6.2700	700.623307	1228.086580	-96.811384	772.195227	1225.250493	-437.041427	739.591836	1264.711819	-270.413619	657.048494	1145.776792	-279.576633	573.011586	987.947686	-58.085524	719.859008	855.104680	-127.901347	648.471717	1030.710351	-617.286986	723.268304	844.515348	-531.850939	200.844234	1206.099653	-368.817295	337.753261	1155.953718	-496.186564	302.531218	1177.908338	-205.676752	367.365584	1109.271052	-463.350615	347.667472	1146.216438	-238.579305	216.858793	1242.617163	-330.852679	241.648390	1238.834902	-412.759098	264.445756	1106.142535	-170.516226	273.524453	1072.958182	-527.849726	342.616651	1055.211275	-155.796276	418.874912	1010.789009	-151.808525	463.117303	943.685983	-121.742050	441.777759	1029.002968	-175.637310	540.395371	814.372372	-145.996185	543.706191	795.933260	-258.170295	507.874233	704.860886	-129.734089	488.504847	619.092629	-150.116828	434.017150	553.076837	-149.319685	504.168067	616.358284	-186.353289	370.431891	456.623194	-156.003524	386.721792	474.329227	-238.756067	572.243258	366.024580	-189.229415	460.906663	366.711774	-131.392326	492.082704	379.948673	-238.013365	358.353171	961.989323	-532.611517	412.401533	893.384016	-530.483798	442.001569	906.500459	-513.606619	423.170262	805.108015	-530.693814	449.581425	705.946894	-518.449762	446.398539	676.328900	-414.434488	381.438053	621.779436	-535.573054	336.745311	550.070350	-517.799330	256.615968	507.473390	-516.483575	352.833875	538.988787	-481.246642	167.473619	438.552126	-499.721133	183.520171	426.104602	-422.445412	97.774139	460.930122	-450.052616	225.396008	203.844838	-441.122244	151.450313	280.071567	-506.119817	-128.344272	869.916367	-312.532571	32.566964	83.176908	-515.115869	33.109425	83.054048	-114.790830	
